<svg xmlns="http://www.w3.org/2000/svg" viewBox="0 0 171.61 23.64"><defs><style>.cls-1{fill:#fff;}</style></defs><title>logo_promeo_white</title><g id="Calque_2" data-name="Calque 2"><g id="SOUS_HOME_02" data-name="SOUS HOME 02"><path class="cls-1" d="M28,.39H38.83c3.49,0,5.91.92,7.45,2.48a7.08,7.08,0,0,1,2,5.32v.07a7.23,7.23,0,0,1-4.71,7l5.46,8H41.74l-4.61-6.92H34.35v6.92H28Zm10.52,11c2.15,0,3.39-1,3.39-2.71V8.59c0-1.8-1.3-2.71-3.42-2.71H34.35v5.48Z"/><path class="cls-1" d="M69.2,23.64A11.71,11.71,0,0,1,57.09,11.89v-.07A11.81,11.81,0,0,1,69.27,0,11.72,11.72,0,0,1,81.39,11.75v.07A11.82,11.82,0,0,1,69.2,23.64m6.93-11.82A7,7,0,0,0,69.2,4.64a6.84,6.84,0,0,0-6.86,7.11v.07A7,7,0,0,0,69.27,19a6.84,6.84,0,0,0,6.86-7.11Z"/><polygon class="cls-1" points="100.65 17.63 100.52 17.63 93.37 6.92 93.37 23.25 89.42 23.25 89.42 0.39 93.69 0.39 100.65 11.2 107.6 0.39 111.89 0.39 111.89 23.25 107.86 23.25 107.86 6.86 100.65 17.63"/><polygon class="cls-1" points="139.08 2.74 125.14 2.74 125.14 10.55 137.61 10.55 137.61 12.9 125.14 12.9 125.14 20.9 139.25 20.9 139.25 23.25 122.56 23.25 122.56 0.39 139.08 0.39 139.08 2.74"/><path class="cls-1" d="M160.06,23.64c-6.92,0-11.46-5.52-11.46-11.75v-.07C148.6,5.58,153.2,0,160.13,0s11.45,5.52,11.45,11.75c0,0,0,0,0,.07,0,6.24-4.59,11.82-11.52,11.82m9.76-11.82c0-5.65-4.11-10.29-9.76-10.29s-9.7,4.58-9.7,10.22v.07c0,5.65,4.12,10.28,9.77,10.28s9.69-4.57,9.69-10.21Z"/><path class="cls-1" d="M10,.42H0V7.29H10a1.81,1.81,0,0,1,0,3.62H6.75V8.6H.12V23.27H6.75V17.78H10A8.68,8.68,0,0,0,10,.42"/></g></g></svg>